<?xml version="1.0" encoding="iso-8859-1" standalone="no"?>
<!DOCTYPE svg PUBLIC "-//W3C//DTD SVG 20010904//EN" 
  "http://www.w3.org/TR/2001/REC-SVG-20010904/DTD/svg10.dtd" [ 
<!ENTITY ff "font-family:">
<!ENTITY fs "font-size:">
<!ENTITY fw "font-weight:">
<!ENTITY fst "font-style:">
<!ENTITY sw "stroke-width:">
<!ENTITY as "text-anchor:start;">
<!ENTITY am "text-anchor:middle;">
<!ENTITY ae "text-anchor:end;">
]>
<!-- Generated by ploticus (http://ploticus.sourceforge.net/)
Title: ploticus-graphic
SVG Driver by B.Traill
-->
<svg xmlns="http://www.w3.org/2000/svg" 
  viewBox="0 0 393.60 269.52"      
  xmlns:xlink="http://www.w3.org/1999/xlink"
>
<g transform="translate(-16.80,-247.20)" >                                                       

<g style="fill:#000000;stroke:#000000;&ff;Helvetica;">
<g style="&sw;0.6;&fs;10pt;&am;">
<text x="234.00" y="460.80" stroke="none">Node count</text>
</g><g style="&sw;0.6;&fs;8pt;&am;">
<text x="72.00" y="447.04" stroke="none">0</text>
</g><g style="&sw;0.5;&fs;8pt;&am;">
<path d="M72 437l0 -5.04" fill="none"/>
<text x="130.91" y="447.04" stroke="none">10000</text>
<path d="M130.9 437l0 -5.04" fill="none"/>
<text x="189.82" y="447.04" stroke="none">20000</text>
<path d="M189.8 437l0 -5.04" fill="none"/>
<text x="248.73" y="447.04" stroke="none">30000</text>
<path d="M248.7 437l0 -5.04" fill="none"/>
<text x="307.64" y="447.04" stroke="none">40000</text>
<path d="M307.6 437l0 -5.04" fill="none"/>
<text x="366.55" y="447.04" stroke="none">50000</text>
<path d="M366.5 437l0 -5.04" fill="none"/>
<path d="M72 432l324 0" fill="none"/>
</g><g style="&sw;0.5;&fs;10pt;&am;">
<text x="43.20" y="360.00" stroke="none" transform="rotate(-90,43.20,360.00)" >Height</text>
</g><g style="&sw;0.5;&fs;8pt;&ae;">
<text x="61.20" y="435.00" stroke="none">15</text>
<path d="M66.96 432l5.04 0" fill="none"/>
<text x="61.20" y="417.00" stroke="none">20</text>
<path d="M66.96 414l5.04 0" fill="none"/>
<text x="61.20" y="399.00" stroke="none">25</text>
<path d="M66.96 396l5.04 0" fill="none"/>
<text x="61.20" y="381.00" stroke="none">30</text>
<path d="M66.96 378l5.04 0" fill="none"/>
<text x="61.20" y="363.00" stroke="none">35</text>
<path d="M66.96 360l5.04 0" fill="none"/>
<text x="61.20" y="345.00" stroke="none">40</text>
<path d="M66.96 342l5.04 0" fill="none"/>
<text x="61.20" y="327.00" stroke="none">45</text>
<path d="M66.96 324l5.04 0" fill="none"/>
<text x="61.20" y="309.00" stroke="none">50</text>
<path d="M66.96 306l5.04 0" fill="none"/>
<text x="61.20" y="291.00" stroke="none">55</text>
<path d="M66.96 288l5.04 0" fill="none"/>
<path d="M72 432l0 -144" fill="none"/>
</g><g style="&sw;0.5;&fs;10pt;&am;">
<text x="234.00" y="273.60" stroke="none">Tree height after inserting a sequence of nodes</text>
</g><g style="fill:#ff0000;stroke:#ff0000;&sw;1.0;&fs;10pt;&am;">
<path d="M77.89 414l5.891 -10.8l5.891 -3.6l5.891 -25.2l5.891 10.8l5.891 -3.6l5.891 0l5.891 -3.6l5.891 0l5.891 0l5.891 -3.6l5.891 -7.2l5.891 -7.2l5.891 14.4l5.891 0l5.891 0l5.891 -10.8l5.891 3.6l5.891 -3.6l5.891 7.2l5.891 -14.4l5.891 -7.2l5.891 14.4l5.891 -14.4l5.891 10.8l5.891 -3.6l5.891 7.2l5.891 -7.2l5.891 10.8l5.891 0l5.891 -18l5.891 0l5.891 18l5.891 -21.6l5.891 18l5.891 -10.8l5.891 10.8l5.891 -7.2l5.891 -7.2l5.891 -3.6l5.891 10.8l5.891 -7.2l5.891 -3.6l5.891 10.8l5.891 0l5.891 -7.2l5.891 -3.6l5.891 -21.6l5.891 25.2l5.891 0" fill="none"/>
</g><g style="fill:#0066cc;stroke:#0066cc;&sw;1.0;&fs;10pt;&am;">
<path d="M77.89 410.4l5.891 -14.4l5.891 -14.4l5.891 3.6l5.891 0l5.891 0l5.891 7.2l5.891 -18l5.891 3.6l5.891 -7.2l5.891 7.2l5.891 -36l5.891 28.8l5.891 -3.6l5.891 -10.8l5.891 3.6l5.891 -14.4l5.891 21.6l5.891 0l5.891 -14.4l5.891 10.8l5.891 0l5.891 -18l5.891 18l5.891 -7.2l5.891 0l5.891 3.6l5.891 -18l5.891 21.6l5.891 0l5.891 -14.4l5.891 10.8l5.891 0l5.891 -10.8l5.891 14.4l5.891 -10.8l5.891 10.8l5.891 -7.2l5.891 0l5.891 -3.6l5.891 0l5.891 0l5.891 3.6l5.891 -18l5.891 10.8l5.891 -10.8l5.891 21.6l5.891 -10.8l5.891 -7.2l5.891 0" fill="none"/>
</g><g style="fill:#00b200;stroke:#00b200;&sw;1.0;&fs;10pt;&am;">
<path d="M77.89 403.2l5.891 0l5.891 -7.2l5.891 -14.4l5.891 -14.4l5.891 7.2l5.891 -3.6l5.891 18l5.891 -7.2l5.891 -14.4l5.891 10.8l5.891 -7.2l5.891 0l5.891 -3.6l5.891 7.2l5.891 -3.6l5.891 -3.6l5.891 -7.2l5.891 -3.6l5.891 -7.2l5.891 14.4l5.891 -3.6l5.891 7.2l5.891 -10.8l5.891 14.4l5.891 -28.8l5.891 18l5.891 -7.2l5.891 -7.2l5.891 14.4l5.891 -3.6l5.891 0l5.891 -3.6l5.891 7.2l5.891 -14.4l5.891 18l5.891 0l5.891 3.6l5.891 -14.4l5.891 3.6l5.891 -3.6l5.891 3.6l5.891 0l5.891 -3.6l5.891 7.2l5.891 -3.6l5.891 0l5.891 0l5.891 -3.6l5.891 0" fill="none"/>
</g><g style="fill:#ff0000;stroke:#ff0000;&sw;1.0;&fs;8pt;&am;">
<path d="M64.8 474l36 0" fill="none"/>
</g><g style="&sw;1.0;&fs;8pt;&as;">
<text x="108.00" y="478.00" stroke="none">Increasing sequence</text>
</g><g style="fill:#0066cc;stroke:#0066cc;&sw;1.0;&fs;8pt;&as;">
<path d="M64.8 486.2l36 0" fill="none"/>
</g><g style="&sw;1.0;&fs;8pt;&as;">
<text x="108.00" y="490.16" stroke="none">Decreasing sequence</text>
</g><g style="fill:#00b200;stroke:#00b200;&sw;1.0;&fs;8pt;&as;">
<path d="M64.8 498.3l36 0" fill="none"/>
</g><g style="&sw;1.0;&fs;8pt;&as;">
<text x="108.00" y="502.32" stroke="none">Random sequence</text>
</g></g>
</g>
</svg>
